<svg xmlns="http://www.w3.org/2000/svg" version="1.1" xmlns:xlink="http://www.w3.org/1999/xlink" xmlns:svgjs="http://svgjs.com/svgjs" width="1920" height="720" preserveAspectRatio="none" viewBox="0 0 1920 720"><g mask="url(&quot;#SvgjsMask1018&quot;)" fill="none"><rect width="1920" height="720" x="0" y="0" fill="rgba(193, 244, 197, 1)"></rect><path d="M1984 720L0 720 L0 427.82Q38.53 370.35, 96 408.87Q163.44 380.31, 192 447.75Q234.24 329.99, 352 372.22Q441.38 301.6, 512 390.98Q598.13 317.12, 672 403.25Q727.55 362.8, 768 418.35Q874.92 365.27, 928 472.2Q931.95 380.15, 1024 384.1Q1098.41 298.51, 1184 372.93Q1307.09 336.01, 1344 459.1Q1408.4 363.5, 1504 427.9Q1529.15 357.05, 1600 382.21Q1659.72 345.94, 1696 405.66Q1765.82 379.48, 1792 449.29Q1803.08 364.37, 1888 375.45Q1956.13 347.58, 1984 415.71z" fill="rgba(34, 108, 59, 1)"></path><path d="M2080 720L0 720 L0 463.28Q111.99 415.27, 160 527.27Q188.81 460.08, 256 488.89Q313.4 450.29, 352 507.7Q438.81 434.51, 512 521.33Q599.45 448.78, 672 536.22Q683.57 451.8, 768 463.37Q825.89 425.26, 864 483.16Q960.26 419.42, 1024 515.68Q1110.55 442.22, 1184 528.77Q1239.09 423.86, 1344 478.94Q1433.79 408.73, 1504 498.52Q1536.16 434.69, 1600 466.85Q1724.38 431.23, 1760 555.61Q1820.35 455.96, 1920 516.31Q1988.52 424.83, 2080 493.35z" fill="rgba(56, 178, 97, 1)"></path><path d="M1984 720L0 720 L0 635.83Q48.75 524.59, 160 573.34Q197.38 514.73, 256 552.11Q373.54 509.65, 416 627.19Q513.38 564.57, 576 661.95Q577.66 567.61, 672 569.27Q707.45 508.72, 768 544.18Q878.01 494.19, 928 604.2Q960.22 540.42, 1024 572.65Q1062.94 515.59, 1120 554.53Q1162.87 501.4, 1216 544.27Q1313.66 481.93, 1376 579.59Q1449.53 557.13, 1472 630.66Q1532.71 531.37, 1632 592.07Q1687.47 487.54, 1792 543Q1856.97 511.98, 1888 576.95Q1979.06 572.01, 1984 663.07z" fill="rgba(150, 222, 174, 1)"></path><path d="M2016 720L0 720 L0 650.24Q64.66 618.9, 96 683.57Q164.42 655.99, 192 724.41Q263.98 636.39, 352 708.37Q375.89 636.26, 448 660.16Q534.62 586.77, 608 673.39Q663.06 632.45, 704 687.51Q767.17 590.68, 864 653.85Q906.15 600, 960 642.16Q1046.7 632.86, 1056 719.55Q1076.11 643.65, 1152 663.76Q1253.02 604.78, 1312 705.8Q1347.49 645.29, 1408 680.78Q1446.77 623.55, 1504 662.32Q1570.68 633.01, 1600 699.69Q1623.84 627.53, 1696 651.37Q1786.95 582.32, 1856 673.27Q1945.72 602.99, 2016 692.7z" fill="white"></path></g><defs><mask id="SvgjsMask1018"><rect width="1920" height="720" fill="#ffffff"></rect></mask></defs></svg>