<svg xmlns="http://www.w3.org/2000/svg" version="1.1" xmlns:xlink="http://www.w3.org/1999/xlink" xmlns:svgjs="http://svgjs.com/svgjs" width="1440" height="560" preserveAspectRatio="none" viewBox="0 0 1440 560"><g mask="url(&quot;#SvgjsMask1041&quot;)" fill="none"><use xlink:href="#SvgjsG1045" transform="translate(0, 0)" fill="rgba(255, 255, 255, 1)"></use><use xlink:href="#SvgjsG1045" transform="translate(648.0000000000001, 0)" fill="rgba(255, 255, 255, 1)"></use><use xlink:href="#SvgjsG1045" transform="translate(1296.0000000000002, 0)" fill="rgba(255, 255, 255, 1)"></use></g><defs><mask id="SvgjsMask1041"><rect width="1440" height="560" fill="#ffffff"></rect></mask><g id="SvgjsG1042"><path d="M8 14.66l5.904-5.908c1.836-1.836 1.8-4.512 0.132-6.174A4.268 4.268 0 0 0 8 2.58a4.264 4.264 0 0 0-6.03-0.02C0.3 4.24 0.26 6.92 2.1 8.744L8 14.66z"></path></g><g id="SvgjsG1044"><path d="M3.898 0s0.232 4.58 4.246 4.192S8.597 0.364 3.898 0m4.203 14.894a2.324 2.324 0 0 1-1.902 0.977c-0.64 0-1.267-0.3-1.689-0.721-0.864-0.943-1.985-3.051-1.986-3.052C1.897 10.822 1.56 9.837 1.56 8.839c0-2.126 1.72-3.968 3.848-3.968 1.05 0 1.996 0.42 2.692 1.099a3.835 3.835 0 0 1 2.69-1.099c2.129 0 3.848 1.842 3.849 3.967 0 0.997-0.334 1.983-0.964 3.259 0 0-1.12 2.108-1.984 3.051-0.423 0.422-1.049 0.722-1.689 0.722a2.321 2.321 0 0 1-1.899-0.977" fill-rule="evenodd"></path></g><g id="SvgjsG1043"><path d="M7.648 0h0.716v2.72H7.648V0z m-0.042 13.226h0.715v2.72h-0.715v-2.72z m5.674-5.779H16v0.714H13.28v-0.714zM0 7.403h2.72v0.716H0V7.403zM1.036 4.064l0.347-0.625 2.376 1.318-0.347 0.626L1.036 4.064z m2.852-2.908l0.606-0.381 1.443 2.308-0.606 0.377-1.443-2.304zM10.357 12.627l0.617-0.356 1.36 2.356-0.618 0.357-1.359-2.357z m2.079-1.903l0.347-0.624 2.38 1.317-0.349 0.627-2.378-1.32zM4.336 15.016l-0.625-0.347 1.318-2.38 0.627 0.346L4.336 15.016zM1.175 11.994L0.798 11.388l2.306-1.443 0.378 0.606-2.307 1.443zM12.692 5.611l-0.359-0.621 2.355-1.36 0.359 0.621-2.355 1.36zM10.873 3.572l-0.627-0.348 1.319-2.377 0.626 0.347-1.318 2.378z m-7.283 4.392c0-2.44 1.979-4.419 4.419-4.419 2.438 0 4.415 1.979 4.415 4.419S10.447 12.381 8.009 12.381c-2.44 0-4.419-1.977-4.419-4.417"></path></g><g id="SvgjsG1045"><use xlink:href="#SvgjsG1042" transform="translate(0, 0) scale(2.7)" fill="rgba(255, 255, 255, 1)"></use><use xlink:href="#SvgjsG1043" transform="translate(0, 64.80000000000001) scale(2.7)" fill="rgba(255, 255, 255, 1)"></use><use xlink:href="#SvgjsG1043" transform="translate(0, 129.60000000000002) scale(2.7)" fill="rgba(255, 255, 255, 1)"></use><use xlink:href="#SvgjsG1043" transform="translate(0, 194.40000000000003) scale(2.7)" fill="rgba(255, 255, 255, 1)"></use><use xlink:href="#SvgjsG1043" transform="translate(0, 259.20000000000005) scale(2.7)" fill="rgba(255, 255, 255, 1)"></use><use xlink:href="#SvgjsG1043" transform="translate(0, 324.00000000000006) scale(2.7)" fill="rgba(255, 255, 255, 1)"></use><use xlink:href="#SvgjsG1043" transform="translate(0, 388.80000000000007) scale(2.7)" fill="rgba(255, 255, 255, 1)"></use><use xlink:href="#SvgjsG1043" transform="translate(0, 453.6000000000001) scale(2.7)" fill="rgba(255, 255, 255, 1)"></use><use xlink:href="#SvgjsG1043" transform="translate(0, 518.4000000000001) scale(2.7)" fill="rgba(255, 255, 255, 1)"></use><use xlink:href="#SvgjsG1042" transform="translate(64.80000000000001, 0) scale(2.7)" fill="rgba(255, 255, 255, 1)"></use><use xlink:href="#SvgjsG1042" transform="translate(64.80000000000001, 64.80000000000001) scale(2.7)" fill="rgba(255, 255, 255, 1)"></use><use xlink:href="#SvgjsG1044" transform="translate(64.80000000000001, 129.60000000000002) scale(2.7)" fill="rgba(255, 255, 255, 1)"></use><use xlink:href="#SvgjsG1043" transform="translate(64.80000000000001, 194.40000000000003) scale(2.7)" fill="rgba(255, 255, 255, 1)"></use><use xlink:href="#SvgjsG1042" transform="translate(64.80000000000001, 259.20000000000005) scale(2.7)" fill="rgba(255, 255, 255, 1)"></use><use xlink:href="#SvgjsG1044" transform="translate(64.80000000000001, 324.00000000000006) scale(2.7)" fill="rgba(255, 255, 255, 1)"></use><use xlink:href="#SvgjsG1044" transform="translate(64.80000000000001, 388.80000000000007) scale(2.7)" fill="rgba(255, 255, 255, 1)"></use><use xlink:href="#SvgjsG1043" transform="translate(64.80000000000001, 453.6000000000001) scale(2.7)" fill="rgba(255, 255, 255, 1)"></use><use xlink:href="#SvgjsG1043" transform="translate(64.80000000000001, 518.4000000000001) scale(2.7)" fill="rgba(255, 255, 255, 1)"></use><use xlink:href="#SvgjsG1044" transform="translate(129.60000000000002, 0) scale(2.7)" fill="rgba(255, 255, 255, 1)"></use><use xlink:href="#SvgjsG1044" transform="translate(129.60000000000002, 64.80000000000001) scale(2.7)" fill="rgba(255, 255, 255, 1)"></use><use xlink:href="#SvgjsG1043" transform="translate(129.60000000000002, 129.60000000000002) scale(2.7)" fill="rgba(255, 255, 255, 1)"></use><use xlink:href="#SvgjsG1043" transform="translate(129.60000000000002, 194.40000000000003) scale(2.7)" fill="rgba(255, 255, 255, 1)"></use><use xlink:href="#SvgjsG1044" transform="translate(129.60000000000002, 259.20000000000005) scale(2.7)" fill="rgba(255, 255, 255, 1)"></use><use xlink:href="#SvgjsG1043" transform="translate(129.60000000000002, 324.00000000000006) scale(2.7)" fill="rgba(255, 255, 255, 1)"></use><use xlink:href="#SvgjsG1043" transform="translate(129.60000000000002, 388.80000000000007) scale(2.7)" fill="rgba(255, 255, 255, 1)"></use><use xlink:href="#SvgjsG1042" transform="translate(129.60000000000002, 453.6000000000001) scale(2.7)" fill="rgba(255, 255, 255, 1)"></use><use xlink:href="#SvgjsG1043" transform="translate(129.60000000000002, 518.4000000000001) scale(2.7)" fill="rgba(255, 255, 255, 1)"></use><use xlink:href="#SvgjsG1043" transform="translate(194.40000000000003, 0) scale(2.7)" fill="rgba(255, 255, 255, 1)"></use><use xlink:href="#SvgjsG1042" transform="translate(194.40000000000003, 64.80000000000001) scale(2.7)" fill="rgba(255, 255, 255, 1)"></use><use xlink:href="#SvgjsG1042" transform="translate(194.40000000000003, 129.60000000000002) scale(2.7)" fill="rgba(255, 255, 255, 1)"></use><use xlink:href="#SvgjsG1043" transform="translate(194.40000000000003, 194.40000000000003) scale(2.7)" fill="rgba(255, 255, 255, 1)"></use><use xlink:href="#SvgjsG1044" transform="translate(194.40000000000003, 259.20000000000005) scale(2.7)" fill="rgba(255, 255, 255, 1)"></use><use xlink:href="#SvgjsG1043" transform="translate(194.40000000000003, 324.00000000000006) scale(2.7)" fill="rgba(255, 255, 255, 1)"></use><use xlink:href="#SvgjsG1042" transform="translate(194.40000000000003, 388.80000000000007) scale(2.7)" fill="rgba(255, 255, 255, 1)"></use><use xlink:href="#SvgjsG1044" transform="translate(194.40000000000003, 453.6000000000001) scale(2.7)" fill="rgba(255, 255, 255, 1)"></use><use xlink:href="#SvgjsG1044" transform="translate(194.40000000000003, 518.4000000000001) scale(2.7)" fill="rgba(255, 255, 255, 1)"></use><use xlink:href="#SvgjsG1042" transform="translate(259.20000000000005, 0) scale(2.7)" fill="rgba(255, 255, 255, 1)"></use><use xlink:href="#SvgjsG1044" transform="translate(259.20000000000005, 64.80000000000001) scale(2.7)" fill="rgba(255, 255, 255, 1)"></use><use xlink:href="#SvgjsG1044" transform="translate(259.20000000000005, 129.60000000000002) scale(2.7)" fill="rgba(255, 255, 255, 1)"></use><use xlink:href="#SvgjsG1044" transform="translate(259.20000000000005, 194.40000000000003) scale(2.7)" fill="rgba(255, 255, 255, 1)"></use><use xlink:href="#SvgjsG1043" transform="translate(259.20000000000005, 259.20000000000005) scale(2.7)" fill="rgba(255, 255, 255, 1)"></use><use xlink:href="#SvgjsG1043" transform="translate(259.20000000000005, 324.00000000000006) scale(2.7)" fill="rgba(255, 255, 255, 1)"></use><use xlink:href="#SvgjsG1042" transform="translate(259.20000000000005, 388.80000000000007) scale(2.7)" fill="rgba(255, 255, 255, 1)"></use><use xlink:href="#SvgjsG1044" transform="translate(259.20000000000005, 453.6000000000001) scale(2.7)" fill="rgba(255, 255, 255, 1)"></use><use xlink:href="#SvgjsG1044" transform="translate(259.20000000000005, 518.4000000000001) scale(2.7)" fill="rgba(255, 255, 255, 1)"></use><use xlink:href="#SvgjsG1044" transform="translate(324.00000000000006, 0) scale(2.7)" fill="rgba(255, 255, 255, 1)"></use><use xlink:href="#SvgjsG1043" transform="translate(324.00000000000006, 64.80000000000001) scale(2.7)" fill="rgba(255, 255, 255, 1)"></use><use xlink:href="#SvgjsG1044" transform="translate(324.00000000000006, 129.60000000000002) scale(2.7)" fill="rgba(255, 255, 255, 1)"></use><use xlink:href="#SvgjsG1042" transform="translate(324.00000000000006, 194.40000000000003) scale(2.7)" fill="rgba(255, 255, 255, 1)"></use><use xlink:href="#SvgjsG1044" transform="translate(324.00000000000006, 259.20000000000005) scale(2.7)" fill="rgba(255, 255, 255, 1)"></use><use xlink:href="#SvgjsG1044" transform="translate(324.00000000000006, 324.00000000000006) scale(2.7)" fill="rgba(255, 255, 255, 1)"></use><use xlink:href="#SvgjsG1043" transform="translate(324.00000000000006, 388.80000000000007) scale(2.7)" fill="rgba(255, 255, 255, 1)"></use><use xlink:href="#SvgjsG1044" transform="translate(324.00000000000006, 453.6000000000001) scale(2.7)" fill="rgba(255, 255, 255, 1)"></use><use xlink:href="#SvgjsG1044" transform="translate(324.00000000000006, 518.4000000000001) scale(2.7)" fill="rgba(255, 255, 255, 1)"></use><use xlink:href="#SvgjsG1042" transform="translate(388.80000000000007, 0) scale(2.7)" fill="rgba(255, 255, 255, 1)"></use><use xlink:href="#SvgjsG1044" transform="translate(388.80000000000007, 64.80000000000001) scale(2.7)" fill="rgba(255, 255, 255, 1)"></use><use xlink:href="#SvgjsG1043" transform="translate(388.80000000000007, 129.60000000000002) scale(2.7)" fill="rgba(255, 255, 255, 1)"></use><use xlink:href="#SvgjsG1043" transform="translate(388.80000000000007, 194.40000000000003) scale(2.7)" fill="rgba(255, 255, 255, 1)"></use><use xlink:href="#SvgjsG1042" transform="translate(388.80000000000007, 259.20000000000005) scale(2.7)" fill="rgba(255, 255, 255, 1)"></use><use xlink:href="#SvgjsG1043" transform="translate(388.80000000000007, 324.00000000000006) scale(2.7)" fill="rgba(255, 255, 255, 1)"></use><use xlink:href="#SvgjsG1044" transform="translate(388.80000000000007, 388.80000000000007) scale(2.7)" fill="rgba(255, 255, 255, 1)"></use><use xlink:href="#SvgjsG1043" transform="translate(388.80000000000007, 453.6000000000001) scale(2.7)" fill="rgba(255, 255, 255, 1)"></use><use xlink:href="#SvgjsG1044" transform="translate(388.80000000000007, 518.4000000000001) scale(2.7)" fill="rgba(255, 255, 255, 1)"></use><use xlink:href="#SvgjsG1042" transform="translate(453.6000000000001, 0) scale(2.7)" fill="rgba(255, 255, 255, 1)"></use><use xlink:href="#SvgjsG1043" transform="translate(453.6000000000001, 64.80000000000001) scale(2.7)" fill="rgba(255, 255, 255, 1)"></use><use xlink:href="#SvgjsG1042" transform="translate(453.6000000000001, 129.60000000000002) scale(2.7)" fill="rgba(255, 255, 255, 1)"></use><use xlink:href="#SvgjsG1042" transform="translate(453.6000000000001, 194.40000000000003) scale(2.7)" fill="rgba(255, 255, 255, 1)"></use><use xlink:href="#SvgjsG1043" transform="translate(453.6000000000001, 259.20000000000005) scale(2.7)" fill="rgba(255, 255, 255, 1)"></use><use xlink:href="#SvgjsG1043" transform="translate(453.6000000000001, 324.00000000000006) scale(2.7)" fill="rgba(255, 255, 255, 1)"></use><use xlink:href="#SvgjsG1044" transform="translate(453.6000000000001, 388.80000000000007) scale(2.7)" fill="rgba(255, 255, 255, 1)"></use><use xlink:href="#SvgjsG1043" transform="translate(453.6000000000001, 453.6000000000001) scale(2.7)" fill="rgba(255, 255, 255, 1)"></use><use xlink:href="#SvgjsG1043" transform="translate(453.6000000000001, 518.4000000000001) scale(2.7)" fill="rgba(255, 255, 255, 1)"></use><use xlink:href="#SvgjsG1043" transform="translate(518.4000000000001, 0) scale(2.7)" fill="rgba(255, 255, 255, 1)"></use><use xlink:href="#SvgjsG1043" transform="translate(518.4000000000001, 64.80000000000001) scale(2.7)" fill="rgba(255, 255, 255, 1)"></use><use xlink:href="#SvgjsG1044" transform="translate(518.4000000000001, 129.60000000000002) scale(2.7)" fill="rgba(255, 255, 255, 1)"></use><use xlink:href="#SvgjsG1044" transform="translate(518.4000000000001, 194.40000000000003) scale(2.7)" fill="rgba(255, 255, 255, 1)"></use><use xlink:href="#SvgjsG1044" transform="translate(518.4000000000001, 259.20000000000005) scale(2.7)" fill="rgba(255, 255, 255, 1)"></use><use xlink:href="#SvgjsG1043" transform="translate(518.4000000000001, 324.00000000000006) scale(2.7)" fill="rgba(255, 255, 255, 1)"></use><use xlink:href="#SvgjsG1043" transform="translate(518.4000000000001, 388.80000000000007) scale(2.7)" fill="rgba(255, 255, 255, 1)"></use><use xlink:href="#SvgjsG1042" transform="translate(518.4000000000001, 453.6000000000001) scale(2.7)" fill="rgba(255, 255, 255, 1)"></use><use xlink:href="#SvgjsG1043" transform="translate(518.4000000000001, 518.4000000000001) scale(2.7)" fill="rgba(255, 255, 255, 1)"></use><use xlink:href="#SvgjsG1044" transform="translate(583.2, 0) scale(2.7)" fill="rgba(255, 255, 255, 1)"></use><use xlink:href="#SvgjsG1042" transform="translate(583.2, 64.80000000000001) scale(2.7)" fill="rgba(255, 255, 255, 1)"></use><use xlink:href="#SvgjsG1044" transform="translate(583.2, 129.60000000000002) scale(2.7)" fill="rgba(255, 255, 255, 1)"></use><use xlink:href="#SvgjsG1044" transform="translate(583.2, 194.40000000000003) scale(2.7)" fill="rgba(255, 255, 255, 1)"></use><use xlink:href="#SvgjsG1042" transform="translate(583.2, 259.20000000000005) scale(2.7)" fill="rgba(255, 255, 255, 1)"></use><use xlink:href="#SvgjsG1043" transform="translate(583.2, 324.00000000000006) scale(2.7)" fill="rgba(255, 255, 255, 1)"></use><use xlink:href="#SvgjsG1043" transform="translate(583.2, 388.80000000000007) scale(2.7)" fill="rgba(255, 255, 255, 1)"></use><use xlink:href="#SvgjsG1042" transform="translate(583.2, 453.6000000000001) scale(2.7)" fill="rgba(255, 255, 255, 1)"></use><use xlink:href="#SvgjsG1044" transform="translate(583.2, 518.4000000000001) scale(2.7)" fill="rgba(255, 255, 255, 1)"></use></g></defs></svg>